<svg viewBox="0 0 1344 20" xmlns="http://www.w3.org/2000/svg" width="1344" height="20">
<!-- The page block seen from the fore-edge. -->
<rect width="1344" height="20" fill="#c4b38f"/>
<path d="M0,1.00 L0,1.00 L24,1.00 L48,1.00 L72,1.00 L96,1.00 L120,1.00 L144,1.00 L168,1.00 L192,1.00 L216,1.00 L240,1.00 L264,1.00 L288,1.00 L312,1.00 L336,1.00 L360,1.00 L384,1.00 L408,1.00 L432,1.00 L456,1.00 L480,1.00 L504,1.01 L528,1.03 L552,1.12 L576,1.34 L600,1.76 L624,2.37 L648,2.96 L672,3.20 L696,2.96 L720,2.37 L744,1.76 L768,1.34 L792,1.12 L816,1.03 L840,1.01 L864,1.00 L888,1.00 L912,1.00 L936,1.00 L960,1.00 L984,1.00 L1008,1.00 L1032,1.00 L1056,1.00 L1080,1.00 L1104,1.00 L1128,1.00 L1152,1.00 L1176,1.00 L1200,1.00 L1224,1.00 L1248,1.00 L1272,1.00 L1296,1.00 L1320,1.00 L1344,1.00" stroke="#e3d6ba" fill="none" stroke-width="0.7" opacity="0.8"/>
<path d="M0,2.10 L0,2.10 L24,2.10 L48,2.10 L72,2.10 L96,2.10 L120,2.10 L144,2.10 L168,2.10 L192,2.10 L216,2.10 L240,2.10 L264,2.10 L288,2.10 L312,2.10 L336,2.10 L360,2.10 L384,2.10 L408,2.10 L432,2.10 L456,2.10 L480,2.10 L504,2.11 L528,2.13 L552,2.22 L576,2.44 L600,2.86 L624,3.47 L648,4.06 L672,4.30 L696,4.06 L720,3.47 L744,2.86 L768,2.44 L792,2.22 L816,2.13 L840,2.11 L864,2.10 L888,2.10 L912,2.10 L936,2.10 L960,2.10 L984,2.10 L1008,2.10 L1032,2.10 L1056,2.10 L1080,2.10 L1104,2.10 L1128,2.10 L1152,2.10 L1176,2.10 L1200,2.10 L1224,2.10 L1248,2.10 L1272,2.10 L1296,2.10 L1320,2.10 L1344,2.10" stroke="#a3916f" fill="none" stroke-width="0.7" opacity="0.8"/>
<path d="M0,3.20 L0,3.20 L24,3.20 L48,3.20 L72,3.20 L96,3.20 L120,3.20 L144,3.20 L168,3.20 L192,3.20 L216,3.20 L240,3.20 L264,3.20 L288,3.20 L312,3.20 L336,3.20 L360,3.20 L384,3.20 L408,3.20 L432,3.20 L456,3.20 L480,3.20 L504,3.21 L528,3.23 L552,3.32 L576,3.54 L600,3.96 L624,4.57 L648,5.16 L672,5.40 L696,5.16 L720,4.57 L744,3.96 L768,3.54 L792,3.32 L816,3.23 L840,3.21 L864,3.20 L888,3.20 L912,3.20 L936,3.20 L960,3.20 L984,3.20 L1008,3.20 L1032,3.20 L1056,3.20 L1080,3.20 L1104,3.20 L1128,3.20 L1152,3.20 L1176,3.20 L1200,3.20 L1224,3.20 L1248,3.20 L1272,3.20 L1296,3.20 L1320,3.20 L1344,3.20" stroke="#a3916f" fill="none" stroke-width="0.7" opacity="0.8"/>
<path d="M0,4.30 L0,4.30 L24,4.30 L48,4.30 L72,4.30 L96,4.30 L120,4.30 L144,4.30 L168,4.30 L192,4.30 L216,4.30 L240,4.30 L264,4.30 L288,4.30 L312,4.30 L336,4.30 L360,4.30 L384,4.30 L408,4.30 L432,4.30 L456,4.30 L480,4.30 L504,4.31 L528,4.33 L552,4.42 L576,4.64 L600,5.06 L624,5.67 L648,6.26 L672,6.50 L696,6.26 L720,5.67 L744,5.06 L768,4.64 L792,4.42 L816,4.33 L840,4.31 L864,4.30 L888,4.30 L912,4.30 L936,4.30 L960,4.30 L984,4.30 L1008,4.30 L1032,4.30 L1056,4.30 L1080,4.30 L1104,4.30 L1128,4.30 L1152,4.30 L1176,4.30 L1200,4.30 L1224,4.30 L1248,4.30 L1272,4.30 L1296,4.30 L1320,4.30 L1344,4.30" stroke="#e3d6ba" fill="none" stroke-width="0.7" opacity="0.8"/>
<path d="M0,5.40 L0,5.40 L24,5.40 L48,5.40 L72,5.40 L96,5.40 L120,5.40 L144,5.40 L168,5.40 L192,5.40 L216,5.40 L240,5.40 L264,5.40 L288,5.40 L312,5.40 L336,5.40 L360,5.40 L384,5.40 L408,5.40 L432,5.40 L456,5.40 L480,5.40 L504,5.41 L528,5.43 L552,5.52 L576,5.74 L600,6.16 L624,6.77 L648,7.36 L672,7.60 L696,7.36 L720,6.77 L744,6.16 L768,5.74 L792,5.52 L816,5.43 L840,5.41 L864,5.40 L888,5.40 L912,5.40 L936,5.40 L960,5.40 L984,5.40 L1008,5.40 L1032,5.40 L1056,5.40 L1080,5.40 L1104,5.40 L1128,5.40 L1152,5.40 L1176,5.40 L1200,5.40 L1224,5.40 L1248,5.40 L1272,5.40 L1296,5.40 L1320,5.40 L1344,5.40" stroke="#a3916f" fill="none" stroke-width="0.7" opacity="0.8"/>
<path d="M0,6.50 L0,6.50 L24,6.50 L48,6.50 L72,6.50 L96,6.50 L120,6.50 L144,6.50 L168,6.50 L192,6.50 L216,6.50 L240,6.50 L264,6.50 L288,6.50 L312,6.50 L336,6.50 L360,6.50 L384,6.50 L408,6.50 L432,6.50 L456,6.50 L480,6.50 L504,6.51 L528,6.53 L552,6.62 L576,6.84 L600,7.26 L624,7.87 L648,8.46 L672,8.70 L696,8.46 L720,7.87 L744,7.26 L768,6.84 L792,6.62 L816,6.53 L840,6.51 L864,6.50 L888,6.50 L912,6.50 L936,6.50 L960,6.50 L984,6.50 L1008,6.50 L1032,6.50 L1056,6.50 L1080,6.50 L1104,6.50 L1128,6.50 L1152,6.50 L1176,6.50 L1200,6.50 L1224,6.50 L1248,6.50 L1272,6.50 L1296,6.50 L1320,6.50 L1344,6.50" stroke="#a3916f" fill="none" stroke-width="0.7" opacity="0.8"/>
<path d="M0,7.60 L0,7.60 L24,7.60 L48,7.60 L72,7.60 L96,7.60 L120,7.60 L144,7.60 L168,7.60 L192,7.60 L216,7.60 L240,7.60 L264,7.60 L288,7.60 L312,7.60 L336,7.60 L360,7.60 L384,7.60 L408,7.60 L432,7.60 L456,7.60 L480,7.60 L504,7.61 L528,7.63 L552,7.72 L576,7.94 L600,8.36 L624,8.97 L648,9.56 L672,9.80 L696,9.56 L720,8.97 L744,8.36 L768,7.94 L792,7.72 L816,7.63 L840,7.61 L864,7.60 L888,7.60 L912,7.60 L936,7.60 L960,7.60 L984,7.60 L1008,7.60 L1032,7.60 L1056,7.60 L1080,7.60 L1104,7.60 L1128,7.60 L1152,7.60 L1176,7.60 L1200,7.60 L1224,7.60 L1248,7.60 L1272,7.60 L1296,7.60 L1320,7.60 L1344,7.60" stroke="#e3d6ba" fill="none" stroke-width="0.7" opacity="0.8"/>
<path d="M0,8.70 L0,8.70 L24,8.70 L48,8.70 L72,8.70 L96,8.70 L120,8.70 L144,8.70 L168,8.70 L192,8.70 L216,8.70 L240,8.70 L264,8.70 L288,8.70 L312,8.70 L336,8.70 L360,8.70 L384,8.70 L408,8.70 L432,8.70 L456,8.70 L480,8.70 L504,8.71 L528,8.73 L552,8.82 L576,9.04 L600,9.46 L624,10.07 L648,10.66 L672,10.90 L696,10.66 L720,10.07 L744,9.46 L768,9.04 L792,8.82 L816,8.73 L840,8.71 L864,8.70 L888,8.70 L912,8.70 L936,8.70 L960,8.70 L984,8.70 L1008,8.70 L1032,8.70 L1056,8.70 L1080,8.70 L1104,8.70 L1128,8.70 L1152,8.70 L1176,8.70 L1200,8.70 L1224,8.70 L1248,8.70 L1272,8.70 L1296,8.70 L1320,8.70 L1344,8.70" stroke="#a3916f" fill="none" stroke-width="0.7" opacity="0.8"/>
<path d="M0,9.80 L0,9.80 L24,9.80 L48,9.80 L72,9.80 L96,9.80 L120,9.80 L144,9.80 L168,9.80 L192,9.80 L216,9.80 L240,9.80 L264,9.80 L288,9.80 L312,9.80 L336,9.80 L360,9.80 L384,9.80 L408,9.80 L432,9.80 L456,9.80 L480,9.80 L504,9.81 L528,9.83 L552,9.92 L576,10.14 L600,10.56 L624,11.17 L648,11.76 L672,12.00 L696,11.76 L720,11.17 L744,10.56 L768,10.14 L792,9.92 L816,9.83 L840,9.81 L864,9.80 L888,9.80 L912,9.80 L936,9.80 L960,9.80 L984,9.80 L1008,9.80 L1032,9.80 L1056,9.80 L1080,9.80 L1104,9.80 L1128,9.80 L1152,9.80 L1176,9.80 L1200,9.80 L1224,9.80 L1248,9.80 L1272,9.80 L1296,9.80 L1320,9.80 L1344,9.80" stroke="#a3916f" fill="none" stroke-width="0.7" opacity="0.8"/>
<path d="M0,10.90 L0,10.90 L24,10.90 L48,10.90 L72,10.90 L96,10.90 L120,10.90 L144,10.90 L168,10.90 L192,10.90 L216,10.90 L240,10.90 L264,10.90 L288,10.90 L312,10.90 L336,10.90 L360,10.90 L384,10.90 L408,10.90 L432,10.90 L456,10.90 L480,10.90 L504,10.91 L528,10.93 L552,11.02 L576,11.24 L600,11.66 L624,12.27 L648,12.86 L672,13.10 L696,12.86 L720,12.27 L744,11.66 L768,11.24 L792,11.02 L816,10.93 L840,10.91 L864,10.90 L888,10.90 L912,10.90 L936,10.90 L960,10.90 L984,10.90 L1008,10.90 L1032,10.90 L1056,10.90 L1080,10.90 L1104,10.90 L1128,10.90 L1152,10.90 L1176,10.90 L1200,10.90 L1224,10.90 L1248,10.90 L1272,10.90 L1296,10.90 L1320,10.90 L1344,10.90" stroke="#e3d6ba" fill="none" stroke-width="0.7" opacity="0.8"/>
<path d="M0,12.00 L0,12.00 L24,12.00 L48,12.00 L72,12.00 L96,12.00 L120,12.00 L144,12.00 L168,12.00 L192,12.00 L216,12.00 L240,12.00 L264,12.00 L288,12.00 L312,12.00 L336,12.00 L360,12.00 L384,12.00 L408,12.00 L432,12.00 L456,12.00 L480,12.00 L504,12.01 L528,12.03 L552,12.12 L576,12.34 L600,12.76 L624,13.37 L648,13.96 L672,14.20 L696,13.96 L720,13.37 L744,12.76 L768,12.34 L792,12.12 L816,12.03 L840,12.01 L864,12.00 L888,12.00 L912,12.00 L936,12.00 L960,12.00 L984,12.00 L1008,12.00 L1032,12.00 L1056,12.00 L1080,12.00 L1104,12.00 L1128,12.00 L1152,12.00 L1176,12.00 L1200,12.00 L1224,12.00 L1248,12.00 L1272,12.00 L1296,12.00 L1320,12.00 L1344,12.00" stroke="#a3916f" fill="none" stroke-width="0.7" opacity="0.8"/>
<path d="M0,13.10 L0,13.10 L24,13.10 L48,13.10 L72,13.10 L96,13.10 L120,13.10 L144,13.10 L168,13.10 L192,13.10 L216,13.10 L240,13.10 L264,13.10 L288,13.10 L312,13.10 L336,13.10 L360,13.10 L384,13.10 L408,13.10 L432,13.10 L456,13.10 L480,13.10 L504,13.11 L528,13.13 L552,13.22 L576,13.44 L600,13.86 L624,14.47 L648,15.06 L672,15.30 L696,15.06 L720,14.47 L744,13.86 L768,13.44 L792,13.22 L816,13.13 L840,13.11 L864,13.10 L888,13.10 L912,13.10 L936,13.10 L960,13.10 L984,13.10 L1008,13.10 L1032,13.10 L1056,13.10 L1080,13.10 L1104,13.10 L1128,13.10 L1152,13.10 L1176,13.10 L1200,13.10 L1224,13.10 L1248,13.10 L1272,13.10 L1296,13.10 L1320,13.10 L1344,13.10" stroke="#a3916f" fill="none" stroke-width="0.7" opacity="0.8"/>
<path d="M0,14.20 L0,14.20 L24,14.20 L48,14.20 L72,14.20 L96,14.20 L120,14.20 L144,14.20 L168,14.20 L192,14.20 L216,14.20 L240,14.20 L264,14.20 L288,14.20 L312,14.20 L336,14.20 L360,14.20 L384,14.20 L408,14.20 L432,14.20 L456,14.20 L480,14.20 L504,14.21 L528,14.23 L552,14.32 L576,14.54 L600,14.96 L624,15.57 L648,16.16 L672,16.40 L696,16.16 L720,15.57 L744,14.96 L768,14.54 L792,14.32 L816,14.23 L840,14.21 L864,14.20 L888,14.20 L912,14.20 L936,14.20 L960,14.20 L984,14.20 L1008,14.20 L1032,14.20 L1056,14.20 L1080,14.20 L1104,14.20 L1128,14.20 L1152,14.20 L1176,14.20 L1200,14.20 L1224,14.20 L1248,14.20 L1272,14.20 L1296,14.20 L1320,14.20 L1344,14.20" stroke="#e3d6ba" fill="none" stroke-width="0.7" opacity="0.8"/>
<path d="M0,15.30 L0,15.30 L24,15.30 L48,15.30 L72,15.30 L96,15.30 L120,15.30 L144,15.30 L168,15.30 L192,15.30 L216,15.30 L240,15.30 L264,15.30 L288,15.30 L312,15.30 L336,15.30 L360,15.30 L384,15.30 L408,15.30 L432,15.30 L456,15.30 L480,15.30 L504,15.31 L528,15.33 L552,15.42 L576,15.64 L600,16.06 L624,16.67 L648,17.26 L672,17.50 L696,17.26 L720,16.67 L744,16.06 L768,15.64 L792,15.42 L816,15.33 L840,15.31 L864,15.30 L888,15.30 L912,15.30 L936,15.30 L960,15.30 L984,15.30 L1008,15.30 L1032,15.30 L1056,15.30 L1080,15.30 L1104,15.30 L1128,15.30 L1152,15.30 L1176,15.30 L1200,15.30 L1224,15.30 L1248,15.30 L1272,15.30 L1296,15.30 L1320,15.30 L1344,15.30" stroke="#a3916f" fill="none" stroke-width="0.7" opacity="0.8"/>
<path d="M0,16.40 L0,16.40 L24,16.40 L48,16.40 L72,16.40 L96,16.40 L120,16.40 L144,16.40 L168,16.40 L192,16.40 L216,16.40 L240,16.40 L264,16.40 L288,16.40 L312,16.40 L336,16.40 L360,16.40 L384,16.40 L408,16.40 L432,16.40 L456,16.40 L480,16.40 L504,16.41 L528,16.43 L552,16.52 L576,16.74 L600,17.16 L624,17.77 L648,18.36 L672,18.60 L696,18.36 L720,17.77 L744,17.16 L768,16.74 L792,16.52 L816,16.43 L840,16.41 L864,16.40 L888,16.40 L912,16.40 L936,16.40 L960,16.40 L984,16.40 L1008,16.40 L1032,16.40 L1056,16.40 L1080,16.40 L1104,16.40 L1128,16.40 L1152,16.40 L1176,16.40 L1200,16.40 L1224,16.40 L1248,16.40 L1272,16.40 L1296,16.40 L1320,16.40 L1344,16.40" stroke="#a3916f" fill="none" stroke-width="0.7" opacity="0.8"/>
<path d="M0,17.50 L0,17.50 L24,17.50 L48,17.50 L72,17.50 L96,17.50 L120,17.50 L144,17.50 L168,17.50 L192,17.50 L216,17.50 L240,17.50 L264,17.50 L288,17.50 L312,17.50 L336,17.50 L360,17.50 L384,17.50 L408,17.50 L432,17.50 L456,17.50 L480,17.50 L504,17.51 L528,17.53 L552,17.62 L576,17.84 L600,18.26 L624,18.87 L648,19.46 L672,19.70 L696,19.46 L720,18.87 L744,18.26 L768,17.84 L792,17.62 L816,17.53 L840,17.51 L864,17.50 L888,17.50 L912,17.50 L936,17.50 L960,17.50 L984,17.50 L1008,17.50 L1032,17.50 L1056,17.50 L1080,17.50 L1104,17.50 L1128,17.50 L1152,17.50 L1176,17.50 L1200,17.50 L1224,17.50 L1248,17.50 L1272,17.50 L1296,17.50 L1320,17.50 L1344,17.50" stroke="#e3d6ba" fill="none" stroke-width="0.7" opacity="0.8"/>
<path d="M0,18.60 L0,18.60 L24,18.60 L48,18.60 L72,18.60 L96,18.60 L120,18.60 L144,18.60 L168,18.60 L192,18.60 L216,18.60 L240,18.60 L264,18.60 L288,18.60 L312,18.60 L336,18.60 L360,18.60 L384,18.60 L408,18.60 L432,18.60 L456,18.60 L480,18.60 L504,18.61 L528,18.63 L552,18.72 L576,18.94 L600,19.36 L624,19.97 L648,20.56 L672,20.80 L696,20.56 L720,19.97 L744,19.36 L768,18.94 L792,18.72 L816,18.63 L840,18.61 L864,18.60 L888,18.60 L912,18.60 L936,18.60 L960,18.60 L984,18.60 L1008,18.60 L1032,18.60 L1056,18.60 L1080,18.60 L1104,18.60 L1128,18.60 L1152,18.60 L1176,18.60 L1200,18.60 L1224,18.60 L1248,18.60 L1272,18.60 L1296,18.60 L1320,18.60 L1344,18.60" stroke="#a3916f" fill="none" stroke-width="0.7" opacity="0.8"/>
<rect x="627" width="90" height="20" fill="#2a1a0c" opacity="0.35"/>
<rect y="14" width="1344" height="6" fill="#1a1208" opacity="0.45"/>
</svg>
